<svg width="1238" height="532" viewBox="0 0 1238 532" fill="none" xmlns="http://www.w3.org/2000/svg">
<g clip-path="url(#clip0_913_534)">
<path d="M34.6182 468.438C34.6182 457.214 43.7159 448.117 54.9404 448.117C66.1648 448.117 75.1444 457.214 75.2626 468.438" fill="#F5F6FA"/>
<path d="M54.9409 468.438C54.5864 468.438 54.3501 468.202 54.3501 467.848V457.215C54.3501 456.86 54.5864 456.624 54.9409 456.624C55.2953 456.624 55.5316 456.86 55.5316 457.215V467.848C55.4135 468.202 55.1772 468.438 54.9409 468.438Z" fill="#000022"/>
<path d="M54.9412 464.777C54.823 464.777 54.7049 464.777 54.5867 464.658L47.9702 458.988C47.7339 458.751 47.7339 458.397 47.852 458.161C48.0883 457.924 48.4428 457.924 48.6791 458.042L55.2956 463.713C55.5319 463.95 55.5319 464.304 55.2956 464.54C55.1775 464.658 55.0593 464.777 54.9412 464.777Z" fill="#000022"/>
<path d="M97.1216 468.439C97.1216 457.215 106.219 448.118 117.444 448.236C128.668 448.236 137.648 457.334 137.648 468.439" fill="#F5F6FA"/>
<path d="M117.444 468.438C117.089 468.438 116.853 468.202 116.853 467.848V457.215C116.853 456.86 117.089 456.624 117.444 456.624C117.798 456.624 118.035 456.86 118.035 457.215V467.848C117.916 468.202 117.68 468.438 117.444 468.438Z" fill="#000022"/>
<path d="M117.443 464.777C117.325 464.777 117.207 464.777 117.089 464.658L110.472 458.988C110.236 458.751 110.236 458.397 110.354 458.161C110.59 457.924 110.945 457.924 111.181 458.042L117.798 463.713C118.034 463.95 118.034 464.304 117.798 464.54C117.679 464.658 117.561 464.777 117.443 464.777Z" fill="#000022"/>
<path d="M927.26 79.5098C948.794 79.5098 966.25 62.0546 966.25 40.5225C966.25 18.9904 948.794 1.53516 927.26 1.53516C905.726 1.53516 888.27 18.9904 888.27 40.5225C888.27 62.0546 905.726 79.5098 927.26 79.5098Z" fill="#F5F6FA"/>
<path d="M128.55 510.733C148.126 510.733 163.995 507.031 163.995 502.463C163.995 497.896 148.126 494.193 128.55 494.193C108.974 494.193 93.104 497.896 93.104 502.463C93.104 507.031 108.974 510.733 128.55 510.733Z" fill="#F5F6FA"/>
<path d="M110.473 163.038C119.807 133.974 142.492 111.527 169.431 98.0586C201.332 82.2274 238.077 80.3371 272.696 86.5987C310.15 93.2148 345.123 108.692 379.033 125.468C412.234 141.89 444.962 159.375 479.462 172.962C548.463 200.135 621.6 215.257 695.563 217.738C762.201 219.983 833.565 212.658 890.632 175.206C942.974 140.827 976.175 84.2359 993.543 25.1641C995.788 17.6029 997.678 9.92362 999.451 2.24429C999.923 -0.000435602 996.497 -0.945583 996.024 1.29914C982.082 62.97 952.19 123.932 901.266 163.156C846.207 205.687 773.78 215.493 706.197 214.312C631.288 213.012 557.207 198.717 487.26 172.016C451.815 158.548 418.378 141.063 384.468 124.05C351.385 107.51 317.239 92.0333 280.848 84.354C247.647 77.3835 211.965 76.911 179.946 89.316C153.598 99.4764 129.495 117.67 115.435 142.599C112.009 148.742 109.173 155.122 107.046 161.856C106.337 164.219 109.764 165.164 110.473 163.038Z" fill="#F5F6FA"/>
<path d="M616.519 434.413C617.228 434.413 617.7 433.941 617.7 433.232C617.7 432.523 617.228 432.051 616.519 432.051H605.294V427.325H616.519C617.228 427.325 617.7 426.852 617.7 426.143C617.7 425.434 617.228 424.962 616.519 424.962H520.815C520.106 424.962 519.634 425.434 519.634 426.143C519.634 426.852 520.106 427.325 520.815 427.325H532.04V432.051H520.815C520.106 432.051 519.634 432.523 519.634 433.232C519.634 433.941 520.106 434.413 520.815 434.413H532.04V439.139H520.815C520.106 439.139 519.634 439.612 519.634 440.321C519.634 441.029 520.106 441.502 520.815 441.502H532.04V446.228H521.997C520.697 446.228 519.634 447.291 519.634 448.591C519.634 449.89 520.697 450.953 521.997 450.953H531.567C531.449 451.19 531.449 451.308 531.449 451.544V468.084C531.449 469.029 532.276 469.856 533.221 469.856C534.167 469.856 534.994 469.029 534.994 468.084V451.544C534.994 451.308 534.994 451.19 534.875 450.953H602.459C602.34 451.19 602.34 451.308 602.34 451.544V468.084C602.34 469.029 603.167 469.856 604.113 469.856C605.058 469.856 605.885 469.029 605.885 468.084V451.544C605.885 451.308 605.885 451.19 605.767 450.953H615.337C616.637 450.953 617.7 449.89 617.7 448.591C617.7 447.291 616.637 446.228 615.337 446.228H605.294V441.502H616.519C617.228 441.502 617.7 441.029 617.7 440.321C617.7 439.612 617.228 439.139 616.519 439.139H605.294V434.413H616.519ZM534.403 427.325H602.931V432.051H534.403V427.325ZM602.931 446.228H534.403V441.502H602.931V446.228ZM602.931 439.139H534.403V434.413H602.931V439.139Z" fill="#403D56"/>
<path d="M223.072 384.792C223.072 363.881 206.176 314.379 185.263 314.379C164.35 314.379 147.454 363.881 147.454 384.792C147.454 405.704 164.35 422.598 185.263 422.598C206.176 422.598 223.072 405.704 223.072 384.792Z" fill="#F5F6FA"/>
<path d="M186.444 469.384C185.735 469.384 185.263 468.911 185.263 468.202V362.936C185.263 362.227 185.735 361.755 186.444 361.755C187.153 361.755 187.626 362.227 187.626 362.936V468.202C187.626 468.793 187.035 469.384 186.444 469.384Z" fill="#000022"/>
<path d="M186.444 380.066C185.735 380.066 185.263 379.594 185.263 378.885C185.263 378.53 185.381 378.294 185.617 378.058L201.095 362.581C201.568 362.108 202.277 362.108 202.749 362.581C203.222 363.054 203.222 363.762 202.749 364.235L187.271 379.712C187.035 379.948 186.799 380.066 186.444 380.066Z" fill="#000022"/>
<path d="M718.129 384.792C718.129 363.881 701.233 314.379 680.32 314.379C659.408 314.379 642.512 363.881 642.512 384.792C642.512 405.704 659.408 422.598 680.32 422.598C701.233 422.598 718.129 405.704 718.129 384.792Z" fill="#F5F6FA"/>
<path d="M681.502 469.384C680.793 469.384 680.32 468.911 680.32 468.202V362.936C680.32 362.227 680.793 361.755 681.502 361.755C682.211 361.755 682.683 362.227 682.683 362.936V468.202C682.683 468.793 682.093 469.384 681.502 469.384Z" fill="#000022"/>
<path d="M681.502 380.066C680.793 380.066 680.32 379.594 680.32 378.885C680.32 378.53 680.438 378.294 680.675 378.058L696.153 362.581C696.625 362.108 697.334 362.108 697.807 362.581C698.279 363.054 698.279 363.762 697.807 364.235L682.329 379.712C682.093 379.948 681.856 380.066 681.502 380.066Z" fill="#000022"/>
<path d="M335.316 61.1976H316.412C313.458 61.1976 311.095 58.8347 311.095 55.8811V12.168C311.095 9.21443 313.458 6.85156 316.412 6.85156H335.316C338.27 6.85156 340.633 9.21443 340.633 12.168V55.8811C340.633 58.8347 338.27 61.1976 335.316 61.1976Z" fill="#E6E8F0"/>
<path d="M409.752 468.793H312.867C307.314 468.793 302.824 464.303 302.824 458.75V67.6955C302.824 62.1428 307.314 57.6533 312.867 57.6533H409.752C415.305 57.6533 419.795 62.1428 419.795 67.6955V458.75C419.795 464.303 415.305 468.793 409.752 468.793Z" fill="#E6E8F0"/>
<path d="M351.858 468.793H254.973C249.419 468.793 244.93 464.303 244.93 458.75V67.6955C244.93 62.1428 249.419 57.6533 254.973 57.6533H351.858C357.411 57.6533 361.9 62.1428 361.9 67.6955V458.75C361.9 464.303 357.411 468.793 351.858 468.793Z" fill="#F5F6FA"/>
<path d="M317.593 61.1976H298.689C295.735 61.1976 293.372 58.8347 293.372 55.8811V12.168C293.372 9.21443 295.735 6.85156 298.689 6.85156H317.593C320.547 6.85156 322.91 9.21443 322.91 12.168V55.8811C322.91 58.8347 320.547 61.1976 317.593 61.1976Z" fill="#F5F6FA"/>
<path d="M292.782 146.262H270.333C268.679 146.262 267.379 144.962 267.379 143.308V109.046C267.379 107.392 268.679 106.093 270.333 106.093H292.782C294.436 106.093 295.735 107.392 295.735 109.046V143.308C295.735 144.962 294.436 146.262 292.782 146.262Z" fill="white"/>
<path d="M336.497 146.262H314.049C312.394 146.262 311.095 144.962 311.095 143.308V109.046C311.095 107.392 312.394 106.093 314.049 106.093H336.497C338.152 106.093 339.451 107.392 339.451 109.046V143.308C339.451 144.962 338.152 146.262 336.497 146.262Z" fill="white"/>
<path d="M292.782 208.877H270.333C268.679 208.877 267.379 207.577 267.379 205.923V171.662C267.379 170.008 268.679 168.708 270.333 168.708H292.782C294.436 168.708 295.735 170.008 295.735 171.662V205.923C295.735 207.577 294.436 208.877 292.782 208.877Z" fill="white"/>
<path d="M336.497 208.877H314.049C312.394 208.877 311.095 207.577 311.095 205.923V171.662C311.095 170.008 312.394 168.708 314.049 168.708H336.497C338.152 168.708 339.451 170.008 339.451 171.662V205.923C339.451 207.577 338.152 208.877 336.497 208.877Z" fill="white"/>
<path d="M292.782 271.493H270.333C268.679 271.493 267.379 270.193 267.379 268.539V234.278C267.379 232.624 268.679 231.324 270.333 231.324H292.782C294.436 231.324 295.735 232.624 295.735 234.278V268.539C295.735 270.193 294.436 271.493 292.782 271.493Z" fill="white"/>
<path d="M336.497 271.493H314.049C312.394 271.493 311.095 270.193 311.095 268.539V234.278C311.095 232.624 312.394 231.324 314.049 231.324H336.497C338.152 231.324 339.451 232.624 339.451 234.278V268.539C339.451 270.193 338.152 271.493 336.497 271.493Z" fill="white"/>
<path d="M292.782 334.109H270.333C268.679 334.109 267.379 332.81 267.379 331.156V296.894C267.379 295.24 268.679 293.94 270.333 293.94H292.782C294.436 293.94 295.735 295.24 295.735 296.894V331.156C295.735 332.81 294.436 334.109 292.782 334.109Z" fill="white"/>
<path d="M336.497 334.109H314.049C312.394 334.109 311.095 332.81 311.095 331.156V296.894C311.095 295.24 312.394 293.94 314.049 293.94H336.497C338.152 293.94 339.451 295.24 339.451 296.894V331.156C339.451 332.81 338.152 334.109 336.497 334.109Z" fill="white"/>
<path d="M292.782 396.725H270.333C268.679 396.725 267.379 395.426 267.379 393.772V359.51C267.379 357.856 268.679 356.557 270.333 356.557H292.782C294.436 356.557 295.735 357.856 295.735 359.51V393.772C295.735 395.426 294.436 396.725 292.782 396.725Z" fill="white"/>
<path d="M336.497 396.725H314.049C312.394 396.725 311.095 395.426 311.095 393.772V359.51C311.095 357.856 312.394 356.557 314.049 356.557H336.497C338.152 356.557 339.451 357.856 339.451 359.51V393.772C339.451 395.426 338.152 396.725 336.497 396.725Z" fill="white"/>
<path d="M823.286 267.949H804.381C801.428 267.949 799.064 265.586 799.064 262.632V237.822C799.064 234.869 801.428 232.506 804.381 232.506H823.286C826.239 232.506 828.603 234.869 828.603 237.822V262.632C828.603 265.586 826.239 267.949 823.286 267.949Z" fill="#E6E8F0"/>
<path d="M982.791 469.974H885.906C880.353 469.974 875.863 465.485 875.863 459.932V272.084C875.863 266.531 880.353 262.042 885.906 262.042H982.791C988.344 262.042 992.834 266.531 992.834 272.084V459.932C992.834 465.485 988.344 469.974 982.791 469.974Z" fill="#E6E8F0"/>
<path d="M924.896 469.974H757.12C751.567 469.974 747.077 465.485 747.077 459.932V272.084C747.077 266.531 751.567 262.042 757.12 262.042H924.896C930.45 262.042 934.939 266.531 934.939 272.084V459.932C934.939 465.485 930.45 469.974 924.896 469.974Z" fill="#F5F6FA"/>
<path d="M805.562 267.949H786.658C783.704 267.949 781.341 265.586 781.341 262.632V237.822C781.341 234.869 783.704 232.506 786.658 232.506H805.562C808.516 232.506 810.879 234.869 810.879 237.822V262.632C810.879 265.586 808.516 267.949 805.562 267.949Z" fill="#F5F6FA"/>
<path d="M830.374 354.784H807.925C806.271 354.784 804.972 353.484 804.972 351.83V317.569C804.972 315.915 806.271 314.615 807.925 314.615H830.374C832.029 314.615 833.328 315.915 833.328 317.569V351.83C833.328 353.484 832.029 354.784 830.374 354.784Z" fill="white"/>
<path d="M874.091 354.784H851.642C849.988 354.784 848.688 353.484 848.688 351.83V317.569C848.688 315.915 849.988 314.615 851.642 314.615H874.091C875.745 314.615 877.045 315.915 877.045 317.569V351.83C877.045 353.484 875.745 354.784 874.091 354.784Z" fill="white"/>
<path d="M830.374 417.4H807.925C806.271 417.4 804.972 416.101 804.972 414.447V380.185C804.972 378.531 806.271 377.231 807.925 377.231H830.374C832.029 377.231 833.328 378.531 833.328 380.185V414.447C833.328 416.101 832.029 417.4 830.374 417.4Z" fill="white"/>
<path d="M874.091 417.4H851.642C849.988 417.4 848.688 416.101 848.688 414.447V380.185C848.688 378.531 849.988 377.231 851.642 377.231H874.091C875.745 377.231 877.045 378.531 877.045 380.185V414.447C877.045 416.101 875.745 417.4 874.091 417.4Z" fill="white"/>
<path d="M1236.82 470.565H1.18152C0.472609 470.565 0 470.092 0 469.384C0 468.675 0.472609 468.202 1.18152 468.202H1236.82C1237.53 468.202 1238 468.675 1238 469.384C1238 470.092 1237.41 470.565 1236.82 470.565Z" fill="#000022"/>
<path d="M428.657 511.916H318.775C318.066 511.916 317.594 511.443 317.594 510.734C317.594 510.025 318.066 509.553 318.775 509.553H428.657C429.366 509.553 429.838 510.025 429.838 510.734C429.838 511.443 429.248 511.916 428.657 511.916Z" fill="#F5F6FA"/>
<path d="M701.589 511.916H591.707C590.998 511.916 590.525 511.443 590.525 510.734C590.525 510.025 590.998 509.553 591.707 509.553H701.589C702.298 509.553 702.77 510.025 702.77 510.734C702.77 511.443 702.179 511.916 701.589 511.916Z" fill="#F5F6FA"/>
<path d="M974.52 511.916H864.639C863.93 511.916 863.457 511.443 863.457 510.734C863.457 510.025 863.93 509.553 864.639 509.553H974.52C975.229 509.553 975.702 510.025 975.702 510.734C975.702 511.443 975.111 511.916 974.52 511.916Z" fill="#F5F6FA"/>
<path d="M505.455 384.792C505.455 363.881 488.56 314.379 467.647 314.379C446.734 314.379 429.838 363.881 429.838 384.792C429.838 405.704 446.734 422.598 467.647 422.598C488.56 422.598 505.455 405.704 505.455 384.792Z" fill="#F5F6FA"/>
<path d="M468.828 469.384C468.119 469.384 467.646 468.911 467.646 468.202V362.936C467.646 362.227 468.119 361.755 468.828 361.755C469.537 361.755 470.01 362.227 470.01 362.936V468.202C470.01 468.793 469.419 469.384 468.828 469.384Z" fill="#000022"/>
<path d="M468.828 380.066C468.119 380.066 467.646 379.594 467.646 378.885C467.646 378.53 467.765 378.294 468.001 378.058L483.479 362.581C483.952 362.108 484.66 362.108 485.133 362.581C485.606 363.054 485.606 363.762 485.133 364.235L469.655 379.712C469.419 379.948 469.182 380.066 468.828 380.066Z" fill="#000022"/>
<path d="M1085.58 384.792C1085.58 363.881 1068.69 314.379 1047.77 314.379C1026.86 314.379 1009.97 363.881 1009.97 384.792C1009.97 405.704 1026.86 422.598 1047.77 422.598C1068.69 422.598 1085.58 405.704 1085.58 384.792Z" fill="#F5F6FA"/>
<path d="M1048.96 469.384C1048.25 469.384 1047.77 468.911 1047.77 468.202V362.936C1047.77 362.227 1048.25 361.755 1048.96 361.755C1049.66 361.755 1050.14 362.227 1050.14 362.936V468.202C1050.14 468.793 1049.55 469.384 1048.96 469.384Z" fill="#000022"/>
<path d="M1048.96 380.067C1048.25 380.067 1047.77 379.595 1047.77 378.886C1047.77 378.531 1047.89 378.295 1048.13 378.059L1063.61 362.582C1064.08 362.109 1064.79 362.109 1065.26 362.582C1065.73 363.055 1065.73 363.763 1065.26 364.236L1049.78 379.713C1049.55 379.949 1049.31 380.067 1048.96 380.067Z" fill="#000022"/>
<path d="M100.193 422.362H87.9053V418.582C91.8043 415.865 95.2307 416.101 99.7205 418.818L100.193 422.362Z" fill="#575DA6"/>
<path d="M85.0695 488.523H82.352L81.9976 478.244H85.0695V488.523Z" fill="#F5B5B7"/>
<path d="M85.7784 491.122H77.1533V491.004C77.1533 489.114 78.6893 487.578 80.5797 487.578H85.8966L85.7784 491.122Z" fill="#2F2F41"/>
<path d="M100.193 488.523H102.911L103.265 478.244H100.193V488.523Z" fill="#F5B5B7"/>
<path d="M99.4844 487.695H104.801C106.692 487.695 108.228 489.231 108.228 491.122V491.24H99.6025L99.4844 487.695Z" fill="#2F2F41"/>
<path d="M100.311 487.223C99.8385 487.223 99.484 486.868 99.3659 486.396L92.7493 457.333C92.7493 457.214 92.6312 457.096 92.3949 457.096C92.2767 457.096 92.1586 457.214 92.0404 457.333L85.8965 486.16C85.7783 486.632 85.4239 486.987 84.9513 486.987H81.9975C81.4067 486.987 81.0522 486.514 81.0522 486.041L83.179 449.535L84.0061 449.299L101.138 449.417L104.801 485.923C104.801 486.514 104.446 486.987 103.974 486.987L100.311 487.223Z" fill="#2F2F41"/>
<path d="M93.2221 415.746C96.2238 415.746 98.6571 413.313 98.6571 410.312C98.6571 407.31 96.2238 404.877 93.2221 404.877C90.2204 404.877 87.7871 407.31 87.7871 410.312C87.7871 413.313 90.2204 415.746 93.2221 415.746Z" fill="#F5B5B7"/>
<path d="M89.9139 453.435C88.9687 453.435 88.0234 453.317 87.0782 453.08C85.4241 452.608 84.1244 451.426 83.2973 449.89C83.1792 449.654 83.1792 449.418 83.1792 449.182C83.77 447.173 86.6056 436.658 84.8333 428.27C84.3607 425.907 84.7152 423.426 86.133 421.418C87.4327 419.409 89.4413 417.992 91.8043 417.637C92.1588 417.519 92.3951 417.519 92.7495 417.519C95.3489 417.165 97.9482 418.11 99.8387 419.882C101.729 421.654 102.792 424.253 102.674 426.971L101.257 449.536C101.257 449.89 101.02 450.245 100.784 450.363C99.1298 451.072 94.2855 453.435 89.9139 453.435Z" fill="#403D56"/>
<path d="M99.2477 406.413C98.0662 403.459 95.1124 401.805 92.0404 402.396L93.6946 403.814C91.5678 403.932 89.3229 403.696 87.9051 405.232C88.3777 405.232 88.9685 406.295 89.4411 406.177C88.4958 406.295 87.6688 406.767 87.3143 407.594C86.9599 408.421 86.8417 409.367 87.078 410.194C87.6688 411.493 88.2595 412.793 88.9685 413.974C88.8503 411.848 93.1038 406.767 95.2305 407.24C94.1672 407.594 93.2219 408.303 92.6312 409.248C94.049 408.54 95.585 408.303 97.121 408.54C97.4754 408.658 97.8299 408.658 98.1843 408.658C98.8932 408.54 99.3659 407.831 99.2477 407.122C99.2477 406.886 99.1296 406.767 99.0114 406.531L99.2477 406.413Z" fill="#2F2F41"/>
<path d="M89.5598 452.135C89.4416 452.135 89.3235 452.135 89.2053 452.017L79.0442 447.527C78.5716 447.291 78.3353 446.818 78.4534 446.346L85.1881 420.827C85.6607 418.818 87.7875 417.637 89.6779 418.228C89.6779 418.228 89.6779 418.228 89.7961 418.228L92.5136 419.055L90.6231 451.19C90.6231 451.544 90.3868 451.78 90.1505 452.017C89.9142 452.017 89.6779 452.135 89.5598 452.135Z" fill="#1F64FF"/>
<path d="M108.464 446.464L107.991 444.81L107.282 442.329L106.928 441.147L106.219 438.666L101.493 420.945C101.02 418.936 99.0117 417.755 97.0031 418.346C97.0031 418.346 97.0031 418.346 96.885 418.346L94.1675 419.173L95.4672 441.738L95.5853 444.101L95.7035 445.637L95.8216 448L96.0579 451.308C96.0579 451.78 96.5305 452.253 97.0031 452.253C97.1213 452.253 97.2394 452.253 97.3576 452.135L107.519 447.645C108.346 447.409 108.582 446.936 108.464 446.464Z" fill="#1F64FF"/>
<path d="M107.046 441.029L95.8218 443.982L95.7036 441.62L106.337 438.666L107.046 441.029Z" fill="#F5F6FA"/>
<path d="M107.991 444.692L96.0581 447.882L95.9399 445.519L107.283 442.211L107.991 444.692Z" fill="#F5F6FA"/>
<path d="M90.9774 442.21L90.7411 444.455L79.8711 441.265L80.4619 438.784L90.9774 442.21Z" fill="#F5F6FA"/>
<path d="M90.741 445.992L79.5165 442.447L78.9258 444.81L90.6229 448.354L90.741 445.992Z" fill="#F5F6FA"/>
<path d="M79.753 448.472C81.0527 448.118 81.7616 446.818 81.4072 445.637C81.4072 445.518 81.289 445.4 81.289 445.282L86.4877 428.742L82.7068 427.915L77.9807 444.101C76.7992 444.691 76.4448 446.109 77.0355 447.291C77.5081 448.236 78.6897 448.708 79.753 448.472Z" fill="#F5B5B7"/>
<path d="M86.724 420.59C87.7873 420.708 88.3781 421.889 88.1418 423.425L86.8421 430.632C86.724 431.223 86.2513 431.577 85.8969 431.459L81.5253 430.396C81.1708 430.278 81.0527 429.805 81.289 429.332L83.8883 422.835C84.2428 421.535 85.4243 420.708 86.724 420.59Z" fill="#403D56"/>
<path d="M93.2224 400.27C97.0033 400.27 100.075 403.223 100.193 407.004H101.493C101.729 407.004 101.966 407.24 101.966 407.476V409.248C101.966 409.485 101.729 409.721 101.493 409.721H86.6059C86.3696 409.721 86.1333 409.485 86.1333 409.248V407.24C86.1333 403.459 89.3234 400.27 93.2224 400.27Z" fill="#1F64FF"/>
<path d="M94.0494 443.628H90.9774C90.7411 443.628 90.623 443.51 90.623 443.273L90.0322 436.894H95.1128L94.522 443.273C94.4039 443.51 94.1676 443.628 94.0494 443.628Z" fill="#F5F6FA"/>
<path d="M94.9946 437.721H89.914C89.6777 437.721 89.5596 437.485 89.5596 437.367V436.422C89.5596 436.186 89.7959 436.067 89.914 436.067H94.9946C95.2309 436.067 95.349 436.304 95.349 436.422V437.367C95.4672 437.485 95.2309 437.721 94.9946 437.721Z" fill="#E1E2E9"/>
<path d="M92.5134 440.202C92.6316 440.202 92.7497 440.202 92.8679 440.32L101.139 433.232L100.666 430.633L104.447 429.451L105.746 433.941C105.983 434.649 105.628 435.476 105.038 435.949L94.6402 442.565C94.6402 443.865 93.6949 444.928 92.3953 444.928C91.0956 444.928 90.0322 443.983 90.0322 442.683C90.0322 441.384 90.9774 440.32 92.2771 440.32C92.3953 440.202 92.3953 440.202 92.5134 440.202Z" fill="#F5B5B7"/>
<path d="M101.138 421.181C102.32 420.827 103.383 421.772 103.856 423.19L105.746 430.278C105.864 430.869 105.628 431.342 105.156 431.46L100.311 432.169C99.9569 432.169 99.6024 431.814 99.6024 431.342L99.3661 424.371C99.1298 422.953 99.9569 421.654 101.138 421.181Z" fill="#403D56"/>
<path d="M156.67 440.438H153.008C152.771 440.438 152.535 440.202 152.535 439.965L151.826 432.286H157.97L157.261 439.965C157.143 440.202 156.907 440.438 156.67 440.438Z" fill="#F5F6FA"/>
<path d="M157.97 433.232H151.826C151.59 433.232 151.354 432.996 151.354 432.759V431.578C151.354 431.342 151.59 431.105 151.826 431.105H157.97C158.206 431.105 158.443 431.342 158.443 431.578V432.759C158.443 433.114 158.206 433.232 157.97 433.232Z" fill="#E1E2E9"/>
<path d="M193.297 485.214C190.579 481.67 188.453 477.653 186.917 473.4C186.68 472.927 186.917 472.337 187.507 471.982L196.723 467.02C197.078 466.902 197.432 466.784 197.669 467.02C198.023 467.138 198.259 467.493 198.259 467.729C199.323 471.864 201.331 475.645 204.167 478.716C204.403 478.953 204.521 479.307 204.403 479.662C204.285 480.016 204.167 480.252 203.813 480.489L194.597 485.451C194.242 485.805 193.651 485.687 193.297 485.214Z" fill="#F5F6FA"/>
<path d="M193.888 484.742C194.006 484.86 194.124 484.86 194.361 484.86L203.577 479.898C203.695 479.898 203.695 479.78 203.695 479.662C203.695 479.544 203.695 479.426 203.577 479.308C200.741 476 198.614 472.219 197.551 467.966C197.551 467.848 197.433 467.729 197.315 467.729C197.196 467.729 197.078 467.729 197.078 467.729L187.862 472.692C187.744 472.81 187.626 472.928 187.744 473.046C189.162 477.299 191.289 481.198 193.888 484.742Z" fill="white"/>
<path d="M197.314 474.109L192.234 476.354C191.879 476.472 191.407 476.354 191.17 476L191.052 475.763C190.934 475.409 191.052 474.936 191.407 474.7L196.487 472.455C196.842 472.337 197.314 472.455 197.55 472.81L197.669 473.046C197.905 473.519 197.787 473.991 197.314 474.109Z" fill="#F5F6FA"/>
<path d="M199.205 477.535L194.124 479.78C193.77 479.898 193.297 479.78 193.061 479.426L192.943 479.189C192.825 478.835 192.943 478.362 193.297 478.126L198.378 475.881C198.732 475.763 199.205 475.881 199.441 476.236L199.559 476.472C199.796 476.945 199.559 477.417 199.205 477.535Z" fill="#F5F6FA"/>
<path d="M187.389 474.7C186.09 473.873 185.735 472.101 186.562 470.801C186.68 470.683 186.799 470.565 186.917 470.447L184.79 440.32L190.934 440.911L191.052 470.447C192.115 471.628 192.115 473.4 190.934 474.464C189.871 475.291 188.453 475.409 187.389 474.7Z" fill="#A0616A"/>
<path d="M186.09 450.362C185.853 450.126 185.617 449.772 185.617 449.417L185.145 441.265C185.026 439.493 186.444 437.957 188.217 437.839C189.753 437.721 191.17 438.784 191.525 440.202L193.533 447.527C193.652 448.118 193.297 448.826 192.706 448.945L187.153 450.48C186.681 450.717 186.326 450.599 186.09 450.362Z" fill="#403D56"/>
<path d="M175.693 511.797H172.385L170.849 499.392H175.693V511.797Z" fill="#A0616A"/>
<path d="M169.43 510.852H176.401V514.75H166.24V514.041C166.24 512.269 167.658 510.852 169.43 510.852Z" fill="#2F2F41"/>
<path d="M187.744 511.797H184.554L183.018 499.392H187.744V511.797Z" fill="#A0616A"/>
<path d="M181.482 510.852H188.453V514.75H178.292V514.041C178.292 512.269 179.71 510.852 181.482 510.852Z" fill="#2F2F41"/>
<path d="M175.456 505.535L171.911 505.417C171.32 505.417 170.73 504.826 170.73 504.236C169.784 489.822 168.485 474.227 170.493 468.32C170.493 467.611 170.966 467.139 171.675 467.139C171.793 467.139 171.793 467.139 171.911 467.139L186.089 469.147C186.68 469.265 187.153 469.738 187.153 470.329C188.925 477.417 189.043 490.295 188.925 503.645C188.925 504.354 188.453 504.826 187.744 504.826H183.963C183.372 504.826 182.899 504.354 182.781 503.881L180.418 488.877C180.3 488.404 179.827 488.05 179.355 488.168C179 488.286 178.646 488.523 178.528 488.995L176.637 504.708C176.637 505.063 176.165 505.535 175.456 505.535C175.574 505.535 175.456 505.535 175.456 505.535Z" fill="#2F2F41"/>
<path d="M177.938 470.329C175.811 469.147 173.566 468.32 171.203 467.966C170.849 467.966 170.612 467.73 170.376 467.493C170.14 467.257 170.14 466.903 170.14 466.548L173.566 441.265C173.921 438.312 175.929 435.713 178.647 434.413C181.364 433.232 184.436 433.468 186.917 435.004C187.035 435.122 187.154 435.122 187.272 435.24C190.107 437.367 191.407 440.911 190.58 444.337C188.453 452.844 187.744 466.903 187.626 469.62C187.626 470.093 187.272 470.565 186.799 470.683C185.499 471.156 184.2 471.392 182.782 471.392C181.246 471.51 179.474 471.156 177.938 470.329Z" fill="#403D56"/>
<path d="M180.891 431.105C184.48 431.105 187.389 428.196 187.389 424.607C187.389 421.019 184.48 418.109 180.891 418.109C177.302 418.109 174.393 421.019 174.393 424.607C174.393 428.196 177.302 431.105 180.891 431.105Z" fill="#A0616A"/>
<path d="M185.381 429.687C184.554 430.514 183.254 430.632 182.427 429.805C182.073 429.451 181.836 428.978 181.718 428.506C181.718 428.387 181.718 428.269 181.718 428.151C181.955 427.442 182.073 426.615 182.191 425.788C182.191 425.552 182.073 425.434 181.955 425.197C181.009 423.898 178.764 425.788 177.819 424.607C177.228 423.898 177.937 422.716 177.465 422.008C176.874 420.944 175.22 421.417 174.157 420.944C172.975 420.354 173.093 418.463 173.802 417.4C174.865 416.1 176.401 415.273 177.937 415.273C179.592 415.273 181.128 415.51 182.663 416.219C184.436 416.809 185.972 417.873 187.153 419.29C188.335 421.181 188.689 423.543 187.862 425.788C187.508 427.206 186.562 428.624 185.381 429.687Z" fill="#2F2F41"/>
<path d="M190.58 436.067C190.462 435.477 189.517 434.768 188.099 434.177C183.609 432.287 178.41 432.759 174.275 435.359C174.039 435.359 173.684 435.595 173.684 435.831L168.958 456.506L168.368 459.224L168.013 460.996L167.422 463.713L167.068 465.131C166.95 465.485 167.186 465.84 167.54 465.958C167.54 465.958 167.54 465.958 167.659 465.958L187.863 467.73C188.217 467.73 188.453 467.494 188.572 467.139L188.808 464.186L189.044 461.114L189.162 459.814L189.399 456.743L190.58 436.067Z" fill="#1F64FF"/>
<path d="M157.379 437.367C157.379 437.485 157.379 437.603 157.497 437.84L168.839 444.338L171.557 442.802L174.511 446.582L168.603 450.717L155.725 440.557C154.307 441.03 152.653 440.321 152.18 438.903C151.707 437.485 152.416 435.831 153.834 435.359C155.252 434.886 156.906 435.595 157.379 437.013C157.379 437.131 157.379 437.249 157.379 437.367Z" fill="#A0616A"/>
<path d="M169.194 443.746C169.194 443.392 169.312 443.037 169.549 442.801L175.338 437.012C176.638 435.712 178.647 435.712 179.946 437.012C181.01 438.075 181.246 439.847 180.419 441.147L176.283 447.408C175.929 447.999 175.22 448.117 174.629 447.763L169.785 444.573C169.431 444.337 169.194 444.1 169.194 443.746Z" fill="#403D56"/>
<path d="M189.162 456.506L189.044 459.696L168.367 459.223L168.958 456.506H189.162Z" fill="#F5F6FA"/>
<path d="M188.926 460.995L188.689 464.185L167.304 463.712L167.894 460.995H188.926Z" fill="#F5F6FA"/>
<path d="M181.01 412.084C176.402 412.084 172.739 415.746 172.621 420.236H171.085C170.849 420.236 170.612 420.472 170.612 420.708V422.835C170.612 423.071 170.849 423.308 171.085 423.308H189.044C189.28 423.308 189.517 423.071 189.517 422.835V420.472C189.399 415.865 185.618 412.084 181.01 412.084Z" fill="#1F64FF"/>
<path d="M228.388 497.738H226.616C226.616 497.501 224.135 491.83 224.135 491.83L222.717 488.286L221.772 485.923L220.354 482.379L218.7 478.244C218.582 477.771 218.109 477.535 217.636 477.653C217.282 477.771 217.046 478.008 217.046 478.244L215.392 482.379L213.974 485.923L213.029 488.286L211.611 491.83C211.611 491.83 209.13 497.501 209.13 497.738H207.357C206.412 497.738 205.585 498.565 205.585 499.51C205.585 500.455 206.412 501.282 207.357 501.282H228.625C229.57 501.282 230.397 500.455 230.397 499.51C230.397 498.565 229.334 497.738 228.388 497.738Z" fill="#EB6484"/>
<path d="M227.206 528.456H226.497C226.616 528.337 223.426 520.304 223.426 520.304L221.535 515.814L220.235 512.743L218.345 508.253L216.336 503.291C216.218 502.7 215.627 502.346 215.037 502.464C214.682 502.582 214.328 502.818 214.21 503.291L212.201 508.253L210.311 512.743L209.011 515.814L207.121 520.304C207.121 520.304 204.049 528.219 204.049 528.456H203.34C202.394 528.456 201.567 529.283 201.567 530.228C201.567 531.173 202.394 532 203.34 532H226.97C227.915 532 228.742 531.173 228.742 530.228C228.742 529.283 228.152 528.456 227.206 528.456Z" fill="#EB6484"/>
<path d="M221.654 485.923H213.737L215.273 482.379H220.236L221.654 485.923Z" fill="#F1F1F1"/>
<path d="M224.135 491.83H211.375L212.793 488.286H222.718L224.135 491.83Z" fill="#F1F1F1"/>
<path d="M220.354 512.742H210.43L212.32 508.253H218.464L220.354 512.742Z" fill="#F1F1F1"/>
<path d="M223.426 520.303H207.357L209.248 515.813H221.536L223.426 520.303Z" fill="#F1F1F1"/>
<path d="M1079.08 468.439C1079.08 457.215 1088.18 448.118 1099.41 448.236C1110.63 448.236 1119.61 457.334 1119.61 468.439" fill="#F5F6FA"/>
<path d="M1099.41 468.438C1099.05 468.438 1098.82 468.202 1098.82 467.848V457.215C1098.82 456.86 1099.05 456.624 1099.41 456.624C1099.76 456.624 1100 456.86 1100 457.215V467.848C1099.88 468.202 1099.64 468.438 1099.41 468.438Z" fill="#000022"/>
<path d="M1099.41 464.777C1099.29 464.777 1099.17 464.777 1099.05 464.658L1092.44 458.988C1092.2 458.751 1092.2 458.397 1092.32 458.161C1092.44 457.924 1092.91 457.924 1093.15 458.042L1099.76 463.713C1100 463.95 1100 464.304 1099.76 464.54C1099.64 464.658 1099.53 464.777 1099.41 464.777Z" fill="#000022"/>
<path d="M1141.59 468.439C1141.59 457.215 1150.69 448.118 1161.91 448.236C1173.13 448.236 1182.11 457.334 1182.11 468.439" fill="#F5F6FA"/>
<path d="M1161.91 468.438C1161.56 468.438 1161.32 468.202 1161.32 467.848V457.215C1161.32 456.86 1161.56 456.624 1161.91 456.624C1162.26 456.624 1162.5 456.86 1162.5 457.215V467.848C1162.38 468.202 1162.15 468.438 1161.91 468.438Z" fill="#000022"/>
<path d="M1161.91 464.777C1161.79 464.777 1161.67 464.777 1161.55 464.658L1154.94 458.988C1154.7 458.751 1154.7 458.397 1154.82 458.161C1154.94 457.924 1155.41 457.924 1155.65 458.042L1162.26 463.713C1162.5 463.95 1162.5 464.304 1162.26 464.54C1162.15 464.658 1162.03 464.777 1161.91 464.777Z" fill="#000022"/>
</g>
<defs>
<clipPath id="clip0_913_534">
<rect width="1238" height="532" fill="white"/>
</clipPath>
</defs>
</svg>
